<?xml version="1.0" encoding="UTF-8"?>
<!-- Generated by Pixelmator Pro 3.3.13 -->
<svg width="1007" height="206" viewBox="0 0 1007 206" xmlns="http://www.w3.org/2000/svg">
    <g id="Group">
        <path id="Dome" fill="#000000" fill-rule="evenodd" stroke="none" d="M 206 103 L 206 103 C 206 46.114655 159.885345 0 103 0 C 46.114655 0 0 46.114655 0 103 L 0 206 L 206 206 L 206 103 Z"/>
        <path id="Dome-copy" fill="#000000" fill-rule="evenodd" stroke="none" d="M 801.042969 103.021469 L 801.042969 103.021469 C 801.042969 159.894958 847.14801 206 904.021484 206 C 960.894958 206 1007 159.894958 1007 103.021469 L 1007 0.042938 L 801.042969 0.042938 L 801.042969 103.021469 Z"/>
        <g id="g1">
            <g id="g2">
                <g id="Group-copy-2">
                    <path id="path1" fill="#000000" fill-rule="evenodd" stroke="none" d="M 452.026886 51.40358 L 452.026886 51.40358 C 452.026886 22.966827 428.974335 -0.085693 400.537598 -0.085693 C 372.100861 -0.085693 349.04834 22.966827 349.04834 51.40358 L 349.04834 102.892845 L 452.026886 102.892845 L 452.026886 51.40358 Z"/>
                </g>
                <g id="Group-copy-3">
                    <path id="path2" fill="#000000" fill-rule="evenodd" stroke="none" d="M 554.61969 51.40358 L 554.61969 51.40358 C 554.61969 22.966827 531.567139 -0.085693 503.130402 -0.085693 C 474.693665 -0.085693 451.641144 22.966827 451.641144 51.40358 L 451.641144 102.892845 L 554.61969 102.892845 L 554.61969 51.40358 Z"/>
                </g>
            </g>
            <g id="g3">
                <g id="g4">
                    <path id="path3" fill="#000000" fill-rule="evenodd" stroke="none" d="M 451.973114 154.59642 L 451.973114 154.59642 C 451.973114 183.033173 475.025665 206.085693 503.462402 206.085693 C 531.899109 206.085693 554.95166 183.033173 554.95166 154.59642 L 554.95166 103.107155 L 451.973114 103.107155 L 451.973114 154.59642 Z"/>
                </g>
                <g id="g5">
                    <path id="path4" fill="#000000" fill-rule="evenodd" stroke="none" d="M 349.38031 154.59642 L 349.38031 154.59642 C 349.38031 183.033173 372.432831 206.085693 400.869598 206.085693 C 429.306335 206.085693 452.358856 183.033173 452.358856 154.59642 L 452.358856 103.107155 L 349.38031 103.107155 L 349.38031 154.59642 Z"/>
                </g>
            </g>
            <path id="Rectangle" fill="#000000" fill-rule="evenodd" stroke="none" d="M 349 134 L 555 134 L 555 73 L 349 73 Z"/>
        </g>
        <g id="g6">
            <g id="Group-copy">
                <g id="g7">
                    <path id="path5" fill="#000000" fill-rule="evenodd" stroke="none" d="M 626.403564 102.973129 L 626.403564 102.973129 C 597.966858 102.973129 574.914307 126.02565 574.914307 154.462402 C 574.914307 182.899139 597.966858 205.95166 626.403564 205.95166 L 677.892822 205.95166 L 677.892822 102.973129 L 626.403564 102.973129 Z"/>
                </g>
                <g id="g8">
                    <path id="path6" fill="#000000" fill-rule="evenodd" stroke="none" d="M 626.403564 0.380325 L 626.403564 0.380325 C 597.966858 0.380325 574.914307 23.432846 574.914307 51.869583 C 574.914307 80.306328 597.966858 103.358856 626.403564 103.358856 L 677.892822 103.358856 L 677.892822 0.380325 L 626.403564 0.380325 Z"/>
                </g>
            </g>
            <g id="g9">
                <g id="g10">
                    <path id="path7" fill="#000000" fill-rule="evenodd" stroke="none" d="M 729.596436 103.026871 L 729.596436 103.026871 C 758.033142 103.026871 781.085693 79.97435 781.085693 51.537613 C 781.085693 23.100861 758.033142 0.04834 729.596436 0.04834 L 678.107178 0.04834 L 678.107178 103.026871 L 729.596436 103.026871 Z"/>
                </g>
                <g id="g11">
                    <path id="path8" fill="#000000" fill-rule="evenodd" stroke="none" d="M 729.596436 205.619675 L 729.596436 205.619675 C 758.033142 205.619675 781.085693 182.567154 781.085693 154.130417 C 781.085693 125.693672 758.033142 102.641144 729.596436 102.641144 L 678.107178 102.641144 L 678.107178 205.619675 L 729.596436 205.619675 Z"/>
                </g>
            </g>
            <path id="Rectangle-copy-2" fill="#000000" fill-rule="evenodd" stroke="none" d="M 709 206 L 709 0 L 648 0 L 648 206 Z"/>
        </g>
        <g id="g12">
            <g id="g13">
                <path id="path9" fill="#000000" fill-rule="evenodd" stroke="none" d="M 328.786591 51.40358 L 328.786591 51.40358 C 328.786591 22.966827 305.73407 -0.085693 277.297333 -0.085693 C 248.86058 -0.085693 225.80806 22.966827 225.80806 51.40358 L 225.80806 102.892845 L 328.786591 102.892845 L 328.786591 51.40358 Z"/>
                <path id="path10" fill="#000000" fill-rule="evenodd" stroke="none" d="M 225.80806 154.40358 L 225.80806 154.40358 C 225.80806 182.840317 248.86058 205.892838 277.297333 205.892838 C 305.73407 205.892838 328.786591 182.840317 328.786591 154.40358 L 328.786591 102.914314 L 225.80806 102.914314 L 225.80806 154.40358 Z"/>
            </g>
            <path id="Rectangle-copy" fill="#000000" fill-rule="evenodd" stroke="none" d="M 226 134 L 329 134 L 329 73 L 226 73 Z"/>
        </g>
    </g>
</svg>
