<?xml version="1.0" encoding="UTF-8"?>
<!-- Generated by Pixelmator Pro 3.3.13 -->
<svg width="926" height="206" viewBox="0 0 926 206" xmlns="http://www.w3.org/2000/svg">
    <g id="Group">
        <path id="Dome" fill="#000000" fill-rule="evenodd" stroke="none" d="M 206 103 L 206 103 C 206 46.114655 159.885345 0 103 0 C 46.114655 0 0 46.114655 0 103 L 0 206 L 206 206 L 206 103 Z"/>
        <path id="Dome-copy" fill="#000000" fill-rule="evenodd" stroke="none" d="M 720.042969 103.021469 L 720.042969 103.021469 C 720.042969 159.894958 766.14801 206 823.021484 206 C 879.894958 206 926 159.894958 926 103.021469 L 926 0.042938 L 720.042969 0.042938 L 720.042969 103.021469 Z"/>
        <g id="g1">
            <path id="Rectangle" fill="#000000" fill-rule="evenodd" stroke="none" d="M 228.80806 206 L 331.786591 206 L 331.786591 81 L 228.80806 81 Z"/>
            <path id="path1" fill="#000000" fill-rule="evenodd" stroke="none" d="M 331.786591 51.40358 L 331.786591 51.40358 C 331.786591 22.966827 308.73407 -0.085693 280.297333 -0.085693 C 251.86058 -0.085693 228.80806 22.966827 228.80806 51.40358 L 228.80806 102.892845 L 331.786591 102.892845 L 331.786591 51.40358 Z"/>
        </g>
        <g id="g2">
            <g id="Group-copy-2">
                <path id="path2" fill="#000000" fill-rule="evenodd" stroke="none" d="M 358.04834 206 L 409 206 L 409 103 L 358.04834 103 Z"/>
                <path id="path3" fill="#000000" fill-rule="evenodd" stroke="none" d="M 461.026886 51.40358 L 461.026886 51.40358 C 461.026886 22.966827 437.974335 -0.085693 409.537598 -0.085693 C 381.100861 -0.085693 358.04834 22.966827 358.04834 51.40358 L 358.04834 102.892845 L 461.026886 102.892845 L 461.026886 51.40358 Z"/>
            </g>
            <g id="Group-copy-3">
                <path id="path4" fill="#000000" fill-rule="evenodd" stroke="none" d="M 512 206 L 563.61969 206 L 563.61969 92 L 512 92 Z"/>
                <path id="path5" fill="#000000" fill-rule="evenodd" stroke="none" d="M 563.61969 51.40358 L 563.61969 51.40358 C 563.61969 22.966827 540.567139 -0.085693 512.130432 -0.085693 C 483.693665 -0.085693 460.641144 22.966827 460.641144 51.40358 L 460.641144 102.892845 L 563.61969 102.892845 L 563.61969 51.40358 Z"/>
                <path id="path6" fill="#ffffff" fill-rule="evenodd" stroke="none" d="M 511.989471 103.366165 L 511.989471 103.366165 C 511.989471 74.929428 488.936951 51.876907 460.500183 51.876907 C 432.063446 51.876907 409.010925 74.929428 409.010925 103.366165 L 409.010925 154.855438 L 511.989471 154.855438 L 511.989471 103.366165 Z"/>
            </g>
        </g>
        <g id="Group-copy">
            <path id="path7" fill="#000000" fill-rule="evenodd" stroke="none" d="M 641.831299 206 L 641.831299 206 C 670.268066 206 693.320557 182.947479 693.320557 154.510742 C 693.320557 126.07399 670.268066 103.021469 641.831299 103.021469 L 590.342041 103.021469 L 590.342041 206 L 641.831299 206 Z"/>
            <path id="path8" fill="#000000" fill-rule="evenodd" stroke="none" d="M 641.831299 0.042938 L 641.831299 0.042938 C 613.394592 0.042938 590.342041 23.095459 590.342041 51.532211 C 590.342041 79.968948 613.394592 103.021469 641.831299 103.021469 L 693.320557 103.021469 L 693.320557 0.042938 L 641.831299 0.042938 Z"/>
        </g>
    </g>
</svg>
